<svg id="Capa_1" enable-background="new 0 0 512.002 512.002" height="512" viewBox="0 0 512.002 512.002" width="512" xmlns="http://www.w3.org/2000/svg"><g><path d="m511.716 424.362c-.063-.488-10.562-82.35-12.586-98.128-.526-4.108-4.288-7.01-8.394-6.485-4.108.527-7.012 4.285-6.485 8.394l7.89 61.524c.544 4.239-.71 8.555-3.441 11.841-2.598 3.127-6.204 4.972-10.157 5.194-.876.05-32.665.024-167.809.032l-.226-.002c-4.196-.046-8.051-1.845-10.854-5.066-2.876-3.305-4.206-7.69-3.648-12.032l17.631-137.494c1.018-7.934 7.816-13.916 15.815-13.916h129.238c7.999 0 14.799 5.982 15.815 13.916l5.9 46.017c.526 4.109 4.3 7.001 8.394 6.485 4.108-.527 7.012-4.285 6.485-8.394l-5.9-46.017c-1.975-15.396-15.17-27.008-30.694-27.008h-8.069l-18.023-154.405c-1.343-11.495-11.082-20.164-22.655-20.164h-31.739c-11.574 0-21.314 8.669-22.655 20.165l-18.023 154.404h-8.074c-15.523 0-28.719 11.61-30.694 27.008-1.993 15.545-19.584 152.74-22.327 174.131-2.646 20.637 13.437 38.985 34.306 38.985h166.675c20.806.001 36.958-18.286 34.304-38.985zm-141.269-353.804c.46-3.936 3.794-6.903 7.757-6.903h31.739c3.962 0 7.297 2.969 7.757 6.903l17.819 152.666h-82.892zm106.964 377.79h-166.675c-11.783 0-20.93-10.354-19.427-22.077l1.37-10.682c5.048 3.88 11.227 6.073 17.605 6.143 177.49-.016 167.246.053 169.107-.053 5.938-.336 11.473-2.428 16.088-5.995l1.358 10.586c1.499 11.687-7.61 22.078-19.426 22.078z"/><path d="m213.24 250.232c-1.975-15.396-15.17-27.008-30.693-27.008h-8.07l-18.024-154.405c-1.341-11.496-11.081-20.165-22.655-20.165h-31.739c-11.574 0-21.314 8.669-22.655 20.165l-4.708 40.337c-.48 4.114 2.466 7.839 6.58 8.318 4.104.486 7.838-2.465 8.318-6.58l4.708-40.337c.46-3.936 3.794-6.903 7.757-6.903h31.739c3.963 0 7.297 2.968 7.757 6.903l17.819 152.666h-82.891l9.61-82.343c.48-4.114-2.466-7.838-6.58-8.318-4.095-.488-7.839 2.465-8.318 6.58l-9.814 84.081h-8.074c-15.523 0-28.719 11.611-30.693 27.008-1.862 14.52-19.685 153.516-22.328 174.131-2.647 20.638 13.436 38.986 34.305 38.986h77.974c4.143 0 7.5-3.357 7.5-7.5s-3.357-7.5-7.5-7.5h-77.974c-11.783 0-20.93-10.354-19.427-22.077l1.37-10.682c5.048 3.88 11.227 6.073 17.605 6.143 177.498-.016 167.239.053 169.108-.053 5.937-.336 11.472-2.427 16.087-5.993l1.358 10.585c1.499 11.688-7.61 22.077-19.427 22.077h-58.714c-4.143 0-7.5 3.357-7.5 7.5s3.357 7.5 7.5 7.5h58.714c20.81 0 36.959-18.289 34.306-38.985-2.619-20.425-20.475-159.656-22.331-174.131zm-.684 151.277c-2.697 3.244-6.501 5.226-11.292 5.226h-166.675l-.226-.002c-4.196-.046-8.051-1.845-10.854-5.066-2.876-3.305-4.206-7.69-3.648-12.032l17.632-137.495c1.017-7.934 7.815-13.916 15.814-13.916h129.239c7.999 0 14.798 5.982 15.814 13.916l17.636 137.527c.544 4.239-.71 8.556-3.44 11.842z"/><path d="m161.853 298.243h-87.849c-7.415 0-13.448 6.033-13.448 13.448v21.106c0 7.416 6.033 13.449 13.448 13.449h87.849c7.415 0 13.448-6.033 13.448-13.449v-21.106c0-7.415-6.033-13.448-13.448-13.448zm-1.552 33.004h-84.745v-18.004h84.745z"/><path d="m121.201 210.992c4.143 0 7.5-3.357 7.5-7.5s-3.357-7.5-7.5-7.5h-6.544c-4.143 0-7.5 3.357-7.5 7.5s3.357 7.5 7.5 7.5z"/><path d="m350.149 298.243c-7.415 0-13.448 6.033-13.448 13.448v21.106c0 7.416 6.033 13.449 13.448 13.449h87.848c7.416 0 13.449-6.033 13.449-13.449v-21.106c0-7.415-6.033-13.448-13.449-13.448zm86.297 33.004h-84.745v-18.004h84.745z"/><path d="m397.344 195.992h-6.543c-4.143 0-7.5 3.357-7.5 7.5s3.357 7.5 7.5 7.5h6.543c4.143 0 7.5-3.357 7.5-7.5s-3.357-7.5-7.5-7.5z"/></g></svg>